<svg width="156" height="64" viewBox="0 0 156 64" fill="none" xmlns="http://www.w3.org/2000/svg">
<path d="M53 0H103V50H53V0Z" fill="#4E8098"/>
<path d="M60.7955 47V5.4H71.8035V20.888H84.2195V5.4H95.2275V47H84.2195V30.488H71.8035V47H60.7955Z" fill="#FCF7F8"/>
<path d="M0 0H50V50H0V0Z" fill="#4E8098"/>
<path d="M19.4815 47V14.616H8.4735V5.4H41.4975V14.616H30.4895V47H19.4815Z" fill="#FCF7F8"/>
<path d="M106 0H156V50H106V0Z" fill="#4E8098"/>
<path d="M118.08 47V5.336H144.64V13.912H128.32V21.336H142.208V29.912H128.32V38.424H145.28V47H118.08Z" fill="#FCF7F8"/>
<path d="M33 63.823V54.177H35.5471C36.5175 54.177 37.3471 54.354 38.036 54.708C38.725 55.0619 39.2538 55.5929 39.6225 56.3009C39.9912 57.0089 40.1756 57.8938 40.1756 58.9558C40.1756 60.0177 39.9912 60.9125 39.6225 61.6401C39.2635 62.3579 38.7444 62.9036 38.0651 63.2773C37.3859 63.6411 36.5757 63.823 35.6345 63.823H33ZM34.6884 62.4366H35.4307C36.0711 62.4366 36.6145 62.3137 37.0608 62.0678C37.5169 61.8122 37.8614 61.4287 38.0942 60.9174C38.3271 60.4061 38.4436 59.7522 38.4436 58.9558C38.4436 58.1691 38.3271 57.5251 38.0942 57.0236C37.8614 56.5221 37.5169 56.1534 37.0608 55.9174C36.6145 55.6814 36.0711 55.5634 35.4307 55.5634H34.6884V62.4366Z" fill="#0C0C0C"/>
<path d="M41.3691 63.823V54.177H44.5858C45.2456 54.177 45.8375 54.2655 46.3615 54.4425C46.8855 54.6195 47.3027 54.9194 47.6132 55.3422C47.9237 55.7552 48.079 56.3206 48.079 57.0383C48.079 57.7266 47.9237 58.292 47.6132 58.7345C47.3027 59.177 46.8855 59.5064 46.3615 59.7227C45.8375 59.939 45.2456 60.0472 44.5858 60.0472H43.0575V63.823H41.3691ZM43.0575 58.6903H44.4111C45.0612 58.6903 45.5561 58.5526 45.8957 58.2773C46.245 58.002 46.4197 57.589 46.4197 57.0383C46.4197 56.4877 46.245 56.1042 45.8957 55.8879C45.5561 55.6618 45.0612 55.5487 44.4111 55.5487H43.0575V58.6903ZM46.5653 63.823L44.2656 59.59L45.4882 58.5723L48.4574 63.823H46.5653Z" fill="#0C0C0C"/>
<path d="M47.9325 63.823L51.0327 54.177H53.0122L56.1124 63.823H54.3367L52.8812 58.6903C52.726 58.179 52.5756 57.6529 52.43 57.1121C52.2942 56.5713 52.1583 56.0354 52.0225 55.5044H51.9642C51.8381 56.0452 51.7023 56.586 51.5567 57.1268C51.4209 57.6578 51.2753 58.179 51.1201 58.6903L49.65 63.823H47.9325ZM49.7664 61.2124V59.8702H54.2494V61.2124H49.7664Z" fill="#0C0C0C"/>
<path d="M57.4459 63.823L55.612 54.177H57.4168L58.2319 59.0442C58.3095 59.5556 58.3823 60.0718 58.4502 60.5929C58.5181 61.1042 58.5812 61.6401 58.6394 62.2006H58.6976C58.785 61.6401 58.8771 61.1042 58.9742 60.5929C59.0712 60.0718 59.1731 59.5556 59.2798 59.0442L60.386 54.177H62.0453L63.1223 59.0442C63.2291 59.5457 63.3358 60.057 63.4426 60.5782C63.5493 61.0993 63.6463 61.6401 63.7337 62.2006H63.7919C63.8501 61.6401 63.9132 61.1042 63.9811 60.5929C64.0587 60.0718 64.1315 59.5556 64.1994 59.0442L65.0145 54.177H66.732L64.8981 63.823H62.6566L61.5795 58.7493C61.5116 58.3953 61.4437 58.0315 61.3757 57.6578C61.3175 57.2743 61.2593 56.8614 61.2011 56.4189H61.1429C61.1041 56.8614 61.0555 57.2743 60.9973 57.6578C60.9391 58.0315 60.8712 58.3953 60.7935 58.7493L59.6874 63.823H57.4459Z" fill="#0C0C0C"/>
<path d="M67.4714 63.823V54.177H69.1598V63.823H67.4714Z" fill="#0C0C0C"/>
<path d="M70.8515 63.823V54.177H72.7L75.5528 59.4867C75.7274 59.8112 75.8924 60.1603 76.0476 60.5339C76.2126 60.9076 76.3678 61.2861 76.5134 61.6696H76.5716C76.5328 61.1485 76.4891 60.6077 76.4406 60.0472C76.3921 59.4769 76.3678 58.9263 76.3678 58.3953V54.177H77.9834V63.823H76.135L73.2822 58.5133C73.1075 58.1888 72.9329 57.8397 72.7582 57.4661C72.5932 57.0924 72.438 56.7139 72.2924 56.3304H72.2342C72.2924 56.8319 72.3458 57.3677 72.3943 57.9381C72.4428 58.4985 72.4671 59.0541 72.4671 59.6047V63.823H70.8515Z" fill="#0C0C0C"/>
<path d="M83.6777 64C82.8239 64 82.0573 63.8083 81.3781 63.4248C80.6988 63.0413 80.1651 62.4808 79.777 61.7434C79.3889 60.9961 79.1948 60.0914 79.1948 59.0295C79.1948 58.2429 79.3064 57.5398 79.5296 56.9204C79.7625 56.3009 80.0827 55.7748 80.4902 55.3422C80.9074 54.8997 81.3878 54.5654 81.9311 54.3392C82.4745 54.1131 83.0616 54 83.6923 54C84.3715 54 84.9489 54.1229 85.4243 54.3687C85.8998 54.6146 86.2831 54.8997 86.5742 55.2242L85.6718 56.2714C85.4389 56.0354 85.1721 55.8486 84.8712 55.7109C84.5704 55.5634 84.1969 55.4897 83.7505 55.4897C83.1877 55.4897 82.6929 55.6323 82.2659 55.9174C81.839 56.1927 81.509 56.591 81.2762 57.1121C81.0433 57.6332 80.9268 58.2576 80.9268 58.9853C80.9268 59.7129 81.0384 60.3422 81.2616 60.8732C81.4848 61.4041 81.8099 61.8122 82.2368 62.0973C82.6735 62.3727 83.2071 62.5103 83.8379 62.5103C84.1095 62.5103 84.3667 62.4759 84.6093 62.4071C84.8518 62.3284 85.0508 62.2203 85.206 62.0826V60.0029H83.4012V58.6018H86.7197V62.8496C86.3995 63.174 85.9726 63.4494 85.4389 63.6755C84.9149 63.8918 84.3279 64 83.6777 64Z" fill="#0C0C0C"/>
<path d="M94.2756 64C93.4217 64 92.6551 63.8083 91.9759 63.4248C91.2967 63.0413 90.763 62.4808 90.3749 61.7434C89.9867 60.9961 89.7927 60.0914 89.7927 59.0295C89.7927 58.2429 89.9043 57.5398 90.1274 56.9204C90.3603 56.3009 90.6805 55.7748 91.0881 55.3422C91.5053 54.8997 91.9856 54.5654 92.529 54.3392C93.0724 54.1131 93.6594 54 94.2901 54C94.9694 54 95.5467 54.1229 96.0222 54.3687C96.4977 54.6146 96.8809 54.8997 97.172 55.2242L96.2696 56.2714C96.0368 56.0354 95.7699 55.8486 95.4691 55.7109C95.1683 55.5634 94.7947 55.4897 94.3484 55.4897C93.7856 55.4897 93.2907 55.6323 92.8638 55.9174C92.4368 56.1927 92.1069 56.591 91.874 57.1121C91.6411 57.6332 91.5247 58.2576 91.5247 58.9853C91.5247 59.7129 91.6363 60.3422 91.8595 60.8732C92.0826 61.4041 92.4077 61.8122 92.8347 62.0973C93.2713 62.3727 93.805 62.5103 94.4357 62.5103C94.7074 62.5103 94.9645 62.4759 95.2071 62.4071C95.4497 62.3284 95.6486 62.2203 95.8039 62.0826V60.0029H93.9991V58.6018H97.3176V62.8496C96.9974 63.174 96.5704 63.4494 96.0367 63.6755C95.5128 63.8918 94.9257 64 94.2756 64Z" fill="#0C0C0C"/>
<path d="M97.3768 63.823L100.477 54.177H102.457L105.557 63.823H103.781L102.326 58.6903C102.17 58.179 102.02 57.6529 101.874 57.1121C101.738 56.5713 101.603 56.0354 101.467 55.5044H101.409C101.282 56.0452 101.147 56.586 101.001 57.1268C100.865 57.6578 100.72 58.179 100.564 58.6903L99.0943 63.823H97.3768ZM99.2108 61.2124V59.8702H103.694V61.2124H99.2108Z" fill="#0C0C0C"/>
<path d="M106.002 63.823V54.177H108.026L109.656 58.8968C109.762 59.2016 109.859 59.5064 109.947 59.8112C110.034 60.1062 110.121 60.4307 110.209 60.7847H110.267C110.354 60.4307 110.437 60.1062 110.514 59.8112C110.602 59.5064 110.694 59.2016 110.791 58.8968L112.421 54.177H114.43V63.823H112.872V59.4277C112.872 59.1229 112.882 58.7738 112.901 58.3805C112.931 57.9872 112.965 57.5988 113.003 57.2153C113.042 56.822 113.081 56.4779 113.12 56.1829H113.062L112.305 58.6313L110.762 62.9381H109.627L108.084 58.6313L107.356 56.1829H107.298C107.337 56.4779 107.371 56.822 107.4 57.2153C107.438 57.5988 107.468 57.9872 107.487 58.3805C107.516 58.7738 107.531 59.1229 107.531 59.4277V63.823H106.002Z" fill="#0C0C0C"/>
<path d="M116.12 63.823V54.177H121.854V55.6224H117.808V58.0855H121.229V59.531H117.808V62.3776H122V63.823H116.12Z" fill="#0C0C0C"/>
<path d="M0 59H30V60H0V59Z" fill="#0C0C0C"/>
<path d="M125 59H156V60H125V59Z" fill="#0C0C0C"/>
</svg>
